:FULLY-SPECIFIED
:FORCE-ALL-JOINTS-BE-3DOF
:DEGREES
324
root 9.73391 16.3704 9.21134 7.17575 9.62513 4.45626
lfemur 24.5644 4.40795 -22.1847
ltibia -1.06019e-14 0 0
lfoot -6.94192 -5.21186 -0.0173054
ltoes -14.4009 0 0
rfemur -43.0206 1.47006 13.0883
rtibia 35.0978 -0 0
rfoot -7.38035 -2.10971 0.045638
rtoes -27.2175 0 0
lowerback -7.89159 -4.80625 -6.43765
upperback -1.09886 -5.91255 1.75914
thorax 4.1077 -3.05182 4.7323
lowerneck -19.2987 -5.27184 -13.1544
upperneck 21.326 -6.74066 13.1787
head 11.0057 -2.63644 6.01017
lclavicle 5.67282e-14 -1.82882e-14 0
lhumerus -22.2437 -40.5092 99.0274
lradius 41.4543 -0 0
lwrist 9.93897 0 0
lhand -5.15474 -24.447 -0.000499179
lfingers 7.12502 0 0
lthumb 20.6449 4.47759 0.00021529
rclavicle 5.67282e-14 -1.82882e-14 0
rhumerus -50.923 5.00087 -82.7752
rradius 30.6444 -0 0
rwrist -16.2648 0 0
rhand -29.3074 -23.1982 0.00729567
rfingers 7.12502 0 0
rthumb -2.64865 -53.1638 0.00705872
325
root 9.71446 16.357 9.40526 7.03589 9.62955 4.06667
lfemur 25.2445 4.60685 -21.3812
ltibia -2.22639e-14 0 0
lfoot -5.61253 -5.23758 0
ltoes -15.9721 0 0
rfemur -42.9554 1.41571 13.8219
rtibia 36.0984 0 0
rfoot -5.89992 -1.43473 0
rtoes -25.9582 0 0
lowerback -7.84496 -4.75946 -6.09206
upperback -1.11204 -5.88748 1.8652
thorax 4.04119 -3.033 4.65889
lowerneck -19.2679 -5.23091 -13.2079
upperneck 21.2002 -6.68494 13.2864
head 10.9512 -2.60437 6.0651
lclavicle 5.91136e-14 -2.46493e-14 0
lhumerus -22.9838 -40.1631 99.6052
lradius 41.1032 0 0
lwrist 9.53411 0 0
lhand -5.41681 -24.6079 0
lfingers 7.12502 0 0
lthumb 20.3929 4.34126 0
rclavicle 5.91136e-14 -2.46493e-14 0
rhumerus -50.8726 5.02672 -82.7013
rradius 30.5771 0 0
rwrist -16.2647 0 0
rhand -29.1207 -23.2765 0
rfingers 7.12502 0 0
rthumb -2.46829 -53.2419 0
326
root 9.6884 16.3582 9.5961 6.91173 9.55007 3.61072
lfemur 26.0417 4.88107 -20.5116
ltibia -4.77085e-15 0 0
lfoot -3.91622 -5.08119 0.0260548
ltoes -16.9903 0 0
rfemur -42.8731 1.45405 14.6704
rtibia 37.104 -0 0
rfoot -5.14364 -0.889877 -0.040338
rtoes -24.5302 0 0
lowerback -7.83973 -4.70176 -5.71615
upperback -1.13102 -5.84841 1.99381
thorax 3.98983 -3.00731 4.59063
lowerneck -19.2519 -5.17232 -13.1985
upperneck 21.1206 -6.60936 13.3291
head 10.9084 -2.56483 6.0889
lclavicle 5.46989e-14 -1.85532e-14 0
lhumerus -23.7741 -39.6232 100.173
lradius 40.6717 -0 0
lwrist 9.2127 0 0
lhand -5.81026 -24.7542 0.00160602
lfingers 7.12502 0 0
lthumb 20.0145 4.23204 0.000743428
rclavicle 5.46989e-14 -1.85532e-14 0
rhumerus -50.6993 5.07462 -82.6169
rradius 30.3737 -0 0
rwrist -16.0146 0 0
rhand -28.6006 -23.6585 -0.0152363
rfingers 7.12502 0 0
rthumb -1.96595 -53.6244 -0.0147454
327
root 9.66234 16.3594 9.78694 6.79065 9.38521 3.0668
lfemur 27.0204 5.22507 -19.5511
ltibia 1.27222e-14 0 0
lfoot -1.85532 -4.74962 0.0483533
ltoes -17.7279 0 0
rfemur -42.7832 1.62612 15.6202
rtibia 38.1439 -0 0
rfoot -4.91223 -0.474568 -0.0543078
rtoes -22.7642 0 0
lowerback -7.8702 -4.62907 -5.28176
upperback -1.1526 -5.79347 2.15141
thorax 3.95142 -2.97343 4.51918
lowerneck -19.2396 -5.09205 -13.142
upperneck 21.0645 -6.50761 13.3264
head 10.8671 -2.51438 6.09202
lclavicle 5.02842e-14 -1.24572e-14 0
lhumerus -24.6083 -38.9264 100.735
lradius 40.1648 -0 0
lwrist 8.9678 0 0
lhand -6.35488 -24.8894 0.00275159
lfingers 7.12502 0 0
lthumb 19.4908 4.14841 0.00118684
rclavicle 5.02842e-14 -1.24572e-14 0
rhumerus -50.424 5.1486 -82.5204
rradius 30.0644 -0 0
rwrist -15.5832 0 0
rhand -27.7805 -24.2789 -0.0310651
rfingers 7.12502 0 0
rthumb -1.17391 -54.2459 -0.0300667
328
root 9.63629 16.3606 9.97778 6.67644 9.18808 2.48367
lfemur 27.9659 5.59036 -18.5412
ltibia 3.02152e-14 0 0
lfoot 0.372683 -4.32036 0.0561043
ltoes -18.1915 0 0
rfemur -42.6547 1.86812 16.6133
rtibia 39.1614 -0 0
rfoot -5.06245 -0.156447 -0.0471834
rtoes -20.8472 0 0
lowerback -7.91484 -4.55265 -4.82622
upperback -1.17656 -5.73538 2.32322
thorax 3.91768 -2.93797 4.45
lowerneck -19.2349 -5.00344 -13.0553
upperneck 21.0289 -6.39674 13.2939
head 10.8311 -2.46033 6.08065
lclavicle 4.58695e-14 -6.3611e-15 0
lhumerus -25.4354 -38.0914 101.26
lradius 39.5734 -0 0
lwrist 8.75652 0 0
lhand -6.98912 -25.0135 0.00307059
lfingers 7.12502 0 0
lthumb 18.8808 4.08418 0.0012705
rclavicle 4.58695e-14 -6.3611e-15 0
rhumerus -50.0826 5.23164 -82.4143
rradius 29.7052 -0 0
rwrist -15.0497 0 0
rhand -26.8246 -25.0225 -0.0374835
rfingers 7.12502 0 0
rthumb -0.250685 -54.9909 -0.0362826
329
root 9.61023 16.3618 10.1686 6.57158 9.01201 1.90965
lfemur 28.6613 5.93725 -17.5276
ltibia 4.77083e-14 0 0
lfoot 2.57016 -3.87146 0.0458268
ltoes -18.3875 0 0
rfemur -42.4586 2.11546 17.5918
rtibia 40.1 -0 0
rfoot -5.45128 0.0963936 -0.0281392
rtoes -18.966 0 0
lowerback -7.95235 -4.4841 -4.38678
upperback -1.20279 -5.68689 2.4945
thorax 3.88034 -2.90758 4.38854
lowerneck -19.2423 -4.91983 -12.9555
upperneck 21.0107 -6.29375 13.2474
head 10.804 -2.40995 6.061
lclavicle 4.14549e-14 -2.65033e-16 0
lhumerus -26.208 -37.1379 101.72
lradius 38.8878 -0 0
lwrist 8.53598 0 0
lhand -7.65144 -25.1265 0.00252692
lfingers 7.12502 0 0
lthumb 18.2438 4.03315 0.0010586
rclavicle 4.14549e-14 -2.65033e-16 0
rhumerus -49.7112 5.30682 -82.3014
rradius 29.3522 -0 0
rwrist -14.493 0 0
rhand -25.8972 -25.7738 -0.0307672
rfingers 7.12502 0 0
rthumb 0.645029 -55.7438 -0.029786
330
root 9.58417 16.363 10.3595 6.47716 8.91059 1.39264
lfemur 28.8872 6.23488 -16.5601
ltibia 6.52013e-14 0 0
lfoot 4.53949 -3.48081 0.022833
ltoes -18.3224 0 0
rfemur -42.1687 2.30297 18.4974
rtibia 40.9027 -0 0
rfoot -5.93584 0.315865 -0.00836843
rtoes -17.3077 0 0
lowerback -7.96173 -4.43538 -4.00061
upperback -1.23127 -5.66074 2.65052
thorax 3.83117 -2.88888 4.34025
lowerneck -19.2659 -4.85451 -12.8595
upperneck 21.0072 -6.21561 13.2025
head 10.7896 -2.37051 6.03926
lclavicle 3.70402e-14 5.83103e-15 0
lhumerus -26.8821 -36.0871 102.091
lradius 38.0989 -0 0
lwrist 8.26327 0 0
lhand -8.28028 -25.2285 0.00135495
lfingers 7.12502 0 0
lthumb 17.639 3.98911 0.000624505
rclavicle 3.70402e-14 5.83103e-15 0
rhumerus -49.3459 5.35741 -82.1847
rradius 29.0612 -0 0
rwrist -13.992 0 0
rhand -25.1626 -26.4173 -0.0149523
rfingers 7.12502 0 0
rthumb 1.35454 -56.3888 -0.014479
331
root 9.55811 16.3642 10.5503 6.39325 8.93754 0.980213
lfemur 28.4227 6.45934 -15.6899
ltibia 8.26944e-14 0 0
lfoot 6.08322 -3.22564 0
ltoes -18.0026 0 0
rfemur -41.7613 2.36554 19.2712
rtibia 41.5131 0 0
rfoot -6.37333 0.534125 0
rtoes -16.0592 0 0
lowerback -7.92215 -4.41869 -3.70483
upperback -1.26205 -5.66969 2.7766
thorax 3.76192 -2.88852 4.31058
lowerneck -19.3102 -4.82077 -12.7845
upperneck 21.0156 -6.17929 13.1749
head 10.7916 -2.34926 6.02165
lclavicle 3.26255e-14 1.19271e-14 0
lhumerus -27.4178 -34.9605 102.352
lradius 37.197 0 0
lwrist 7.89553 0 0
lhand -8.8141 -25.3194 0
lfingers 7.12502 0 0
lthumb 17.1254 3.94587 0
rclavicle 3.26255e-14 1.19271e-14 0
rhumerus -49.0229 5.36685 -82.0674
rradius 28.8882 0 0
rwrist -13.6259 0 0
rhand -24.7849 -26.8377 0
rfingers 7.12502 0 0
rthumb 1.71933 -56.8105 0
332
root 9.53671 16.3937 10.7203 6.31775 9.14253 0.687305
lfemur 27.0626 6.635 -14.8928
ltibia 4.83732 0 0
lfoot 7.1638 -3.20634 -0.016065
ltoes -17.2127 0 0
rfemur -41.2081 2.26037 19.8995
rtibia 41.9154 -0 0
rfoot -6.84338 0.738052 -0.00150769
rtoes -15.2768 0 0
lowerback -7.82292 -4.45338 -3.51944
upperback -1.30004 -5.73768 2.87204
thorax 3.66591 -2.91851 4.30822
lowerneck -19.3856 -4.82051 -12.7159
upperneck 21.0531 -6.18804 13.1478
head 10.8176 -2.3481 5.99934
lclavicle 2.76197e-14 6.49365e-15 0
lhumerus -27.8083 -33.6873 102.507
lradius 36.125 -0 0
lwrist 7.39246 0 0
lhand -9.28201 -25.4417 -0.000390439
lfingers 7.12502 0 0
lthumb 16.675 3.86293 -9.37741e-05
rclavicle 2.76197e-14 6.49365e-15 0
rhumerus -48.7453 5.32118 -81.9388
rradius 28.8302 -0 0
rwrist -13.3476 0 0
rhand -24.8334 -27.0531 0.00844068
rfingers 7.12502 0 0
rthumb 1.67251 -57.0271 0.00818377
333
root 9.51531 16.4232 10.8904 6.24867 9.49291 0.478215
lfemur 24.9406 6.80784 -14.1289
ltibia 9.67463 0 0
lfoot 7.93172 -3.38107 -0.0253449
ltoes -15.9044 0 0
rfemur -40.5255 2.02928 20.4244
rtibia 42.152 -0 0
rfoot -7.47618 0.899275 -0.00254057
rtoes -14.8223 0 0
lowerback -7.67888 -4.53375 -3.41881
upperback -1.34634 -5.85927 2.94855
thorax 3.54838 -2.97587 4.33062
lowerneck -19.4907 -4.84335 -12.6371
upperneck 21.1256 -6.22888 13.1052
head 10.8662 -2.36157 5.9656
lclavicle 2.26138e-14 1.0602e-15 0
lhumerus -28.0898 -32.2383 102.578
lradius 34.8788 -0 0
lwrist 6.78033 0 0
lhand -9.73908 -25.6038 -0.000137366
lfingers 7.12502 0 0
lthumb 16.235 3.73713 0.000138506
rclavicle 2.26138e-14 1.0602e-15 0
rhumerus -48.4849 5.2308 -81.7945
rradius 28.8416 -0 0
rwrist -13.0844 0 0
rhand -25.1905 -27.1593 0.0118218
rfingers 7.12502 0 0
rthumb 1.32755 -57.1346 0.0114714
334
root 9.4939 16.4527 11.0604 6.18659 9.91892 0.324736
lfemur 22.3429 6.98143 -13.4248
ltibia 14.512 0 0
lfoot 8.47168 -3.61309 -0.0260955
ltoes -14.3349 0 0
rfemur -39.7566 1.73526 20.871
rtibia 42.2527 -0 0
rfoot -8.20481 1.02727 -0.00284438
rtoes -14.5906 0 0
lowerback -7.50738 -4.63442 -3.37169
upperback -1.39523 -6.00324 3.01
thorax 3.41899 -3.04479 4.36638
lowerneck -19.6124 -4.88433 -12.5621
upperneck 21.2128 -6.29448 13.0642
head 10.9274 -2.38593 5.92977
lclavicle 1.7608e-14 -4.37325e-15 0
lhumerus -28.2904 -30.6974 102.577
lradius 33.5292 -0 0
lwrist 6.11604 0 0
lhand -10.1627 -25.7548 -0.000164349
lfingers 7.12502 0 0
lthumb 15.827 3.61832 -3.58163e-05
rclavicle 1.7608e-14 -4.37325e-15 0
rhumerus -48.2313 5.1159 -81.6476
rradius 28.9152 -0 0
rwrist -12.8771 0 0
rhand -25.7402 -27.1579 0.0107774
rfingers 7.12502 0 0
rthumb 0.796609 -57.1344 0.0104673
335
root 9.4725 16.4823 11.2304 6.13245 10.3507 0.198912
lfemur 19.5561 7.14873 -12.805
ltibia 19.3493 0 0
lfoot 8.86829 -3.76576 -0.0199758
ltoes -12.7617 0 0
rfemur -38.9432 1.44173 21.2656
rtibia 42.2479 -0 0
rfoot -8.96233 1.1315 -0.00245537
rtoes -14.4767 0 0
lowerback -7.32573 -4.73007 -3.34664
upperback -1.44093 -6.13834 3.06018
thorax 3.28744 -3.10952 4.40404
lowerneck -19.7373 -4.93854 -12.5048
upperneck 21.2947 -6.37759 13.0418
head 10.9916 -2.41745 5.90121
lclavicle 1.26021e-14 -9.8067e-15 0
lhumerus -28.4375 -29.148 102.515
lradius 32.1467 -0 0
lwrist 5.45651 0 0
lhand -10.5302 -25.844 -0.000529234
lfingers 7.12502 0 0
lthumb 15.473 3.55635 -0.000549184
rclavicle 1.26021e-14 -9.8067e-15 0
rhumerus -47.9735 4.99674 -81.5108
rradius 29.0433 -0 0
rwrist -12.7661 0 0
rhand -26.3664 -27.0505 0.00721754
rfingers 7.12502 0 0
rthumb 0.191817 -57.0279 0.00701596
